{
    "asset" : {
        "generator" : "Khronos glTF Blender I/O v3.4.50",
        "version" : "2.0"
    },
    "scene" : 0,
    "scenes" : [
        {
            "name" : "Scene",
            "nodes" : [
                0
            ]
        }
    ],
    "nodes" : [
        {
            "mesh" : 0,
            "name" : "snow",
            "rotation" : [
                -0.21263109147548676,
                -0.21263109147548676,
                -0.6743797659873962,
                0.6743797063827515
            ],
            "translation" : [
                0.00018796535732690245,
                0,
                -0.001003999961540103
            ]
        }
    ],
    "materials" : [
        {
            "doubleSided" : true,
            "emissiveFactor" : [
                0.3727014888462623,
                0.49999991059303284,
                0.49999991059303284
            ],
            "name" : "snow-color",
            "pbrMetallicRoughness" : {
                "baseColorFactor" : [
                    0.6724420785903931,
                    1,
                    1,
                    1
                ],
                "metallicFactor" : 0.5,
                "roughnessFactor" : 0
            }
        }
    ],
    "meshes" : [
        {
            "name" : "\u5186",
            "primitives" : [
                {
                    "attributes" : {
                        "POSITION" : 0,
                        "TEXCOORD_0" : 1,
                        "NORMAL" : 2
                    },
                    "indices" : 3,
                    "material" : 0
                }
            ]
        }
    ],
    "accessors" : [
        {
            "bufferView" : 0,
            "componentType" : 5126,
            "count" : 6480,
            "max" : [
                2.0069942474365234,
                0.10000132024288177,
                2.3961873054504395
            ],
            "min" : [
                -2.0080955028533936,
                -0.09999868273735046,
                -2.398669719696045
            ],
            "type" : "VEC3"
        },
        {
            "bufferView" : 1,
            "componentType" : 5126,
            "count" : 6480,
            "type" : "VEC2"
        },
        {
            "bufferView" : 2,
            "componentType" : 5126,
            "count" : 6480,
            "type" : "VEC3"
        },
        {
            "bufferView" : 3,
            "componentType" : 5123,
            "count" : 10008,
            "type" : "SCALAR"
        }
    ],
    "bufferViews" : [
        {
            "buffer" : 0,
            "byteLength" : 77760,
            "byteOffset" : 0,
            "target" : 34962
        },
        {
            "buffer" : 0,
            "byteLength" : 51840,
            "byteOffset" : 77760,
            "target" : 34962
        },
        {
            "buffer" : 0,
            "byteLength" : 77760,
            "byteOffset" : 129600,
            "target" : 34962
        },
        {
            "buffer" : 0,
            "byteLength" : 20016,
            "byteOffset" : 207360,
            "target" : 34963
        }
    ],
    "buffers" : [
        {
            "byteLength" : 227376,
            "uri" : "data:application/octet-stream;base64,"
        }
    ]
}
